<svg width="400" height="400" style="overflow: visible;"><line x1="0" y1="159.86466930757055" x2="280" y2="300.3383267310736" stroke="black"></line><line x1="40" y1="139.7970039613558" x2="320" y2="280.2706613848589" stroke="black"></line><line x1="80" y1="119.7293386151411" x2="360" y2="260.2029960386442" stroke="black"></line><line x1="120" y1="99.66167326892638" x2="400" y2="240.13533069242945" stroke="black"></line><line x1="0" y1="159.86466930757055" x2="120" y2="99.66167326892638" stroke="black"></line><line x1="40" y1="179.9323346537853" x2="160" y2="119.7293386151411" stroke="black"></line><line x1="80" y1="200" x2="200" y2="139.7970039613558" stroke="black"></line><line x1="120" y1="220.0676653462147" x2="240" y2="159.86466930757055" stroke="black"></line><line x1="160" y1="240.13533069242945" x2="280" y2="179.9323346537853" stroke="black"></line><line x1="200" y1="260.2029960386442" x2="320" y2="200" stroke="black"></line><line x1="240" y1="280.2706613848589" x2="360" y2="220.0676653462147" stroke="black"></line><line x1="280" y1="300.3383267310736" x2="400" y2="240.13533069242945" stroke="black"></line><g><defs><clipPath id="face0_clipPath"><path id="face0" d="M 40 110.71098356636645 C 26.799999999999997 117.33331313061731 13.200000000000001 128.87816650034944 0 135.5004960646003 C 13.200000000000001 142.12282562885116 26.799999999999997 145.76724723494027 40 152.38957679919113 C 53.2 145.76724723494027 66.8 155.26775166150938 80 148.64542209725852 C 66.8 142.02309253300766 53.2 117.33331313061731 40 110.71098356636645 Z" fill="#00000000" stroke="#000000" stroke-width="0"></path></clipPath><radialGradient id="face0_gradient0" cx="50%" cy="50%" r="30%" fx="50%" fy="50%"><stop offset="0%" style="stop-color: rgb(5, 5, 255); stop-opacity: 1;"></stop><stop offset="100%" style="stop-color: rgb(5, 5, 255); stop-opacity: 0;"></stop></radialGradient><radialGradient id="face0_gradient1" cx="50%" cy="50%" r="30%" fx="50%" fy="50%"><stop offset="0%" style="stop-color: rgb(31, 38, 255); stop-opacity: 1;"></stop><stop offset="100%" style="stop-color: rgb(5, 5, 255); stop-opacity: 0;"></stop></radialGradient><radialGradient id="face0_gradient2" cx="50%" cy="50%" r="30%" fx="50%" fy="50%"><stop offset="0%" style="stop-color: rgb(13, 16, 255); stop-opacity: 1;"></stop><stop offset="100%" style="stop-color: rgb(5, 5, 255); stop-opacity: 0;"></stop></radialGradient><radialGradient id="face0_gradient3" cx="50%" cy="50%" r="30%" fx="50%" fy="50%"><stop offset="0%" style="stop-color: rgb(106, 127, 255); stop-opacity: 1;"></stop><stop offset="100%" style="stop-color: rgb(5, 5, 255); stop-opacity: 0;"></stop></radialGradient></defs><path id="face0" d="M 40 110.71098356636645 C 26.799999999999997 117.33331313061731 13.200000000000001 128.87816650034944 0 135.5004960646003 C 13.200000000000001 142.12282562885116 26.799999999999997 145.76724723494027 40 152.38957679919113 C 53.2 145.76724723494027 66.8 155.26775166150938 80 148.64542209725852 C 66.8 142.02309253300766 53.2 117.33331313061731 40 110.71098356636645 Z" fill="#272fff" stroke="#000000" stroke-width="0"></path><circle cx="0" cy="135.5004960646003" r="81.07273944060393" clip-path="url(#face0_clipPath)" fill="url(#face0_gradient1)"></circle><circle cx="80" cy="148.64542209725852" r="81.07273944060393" clip-path="url(#face0_clipPath)" fill="url(#face0_gradient3)"></circle><circle cx="40" cy="110.71098356636645" r="41.67859323282468" clip-path="url(#face0_clipPath)" fill="url(#face0_gradient0)"></circle><circle cx="40" cy="152.38957679919113" r="41.67859323282468" clip-path="url(#face0_clipPath)" fill="url(#face0_gradient2)"></circle><path id="face0" d="M 40 110.71098356636645 C 26.799999999999997 117.33331313061731 13.200000000000001 128.87816650034944 0 135.5004960646003 C 13.200000000000001 142.12282562885116 26.799999999999997 145.76724723494027 40 152.38957679919113 C 53.2 145.76724723494027 66.8 155.26775166150938 80 148.64542209725852 C 66.8 142.02309253300766 53.2 117.33331313061731 40 110.71098356636645 Z" fill="#00000000" stroke="#000000" stroke-width="0.5"></path></g><g><defs><clipPath id="face1_clipPath"><path id="face1" d="M 80 148.64542209725852 C 66.8 155.26775166150938 53.2 145.76724723494027 40 152.38957679919113 C 53.2 159.011906363442 66.8 167.08775633933607 80 173.71008590358693 C 93.2 167.08775633933607 106.8 169.99854047651925 120 163.3762109122684 C 106.8 156.75388134801753 93.2 155.26775166150938 80 148.64542209725852 Z" fill="#00000000" stroke="#000000" stroke-width="0"></path></clipPath><radialGradient id="face1_gradient0" cx="50%" cy="50%" r="30%" fx="50%" fy="50%"><stop offset="0%" style="stop-color: rgb(106, 127, 255); stop-opacity: 1;"></stop><stop offset="100%" style="stop-color: rgb(106, 127, 255); stop-opacity: 0;"></stop></radialGradient><radialGradient id="face1_gradient1" cx="50%" cy="50%" r="30%" fx="50%" fy="50%"><stop offset="0%" style="stop-color: rgb(13, 16, 255); stop-opacity: 1;"></stop><stop offset="100%" style="stop-color: rgb(106, 127, 255); stop-opacity: 0;"></stop></radialGradient><radialGradient id="face1_gradient2" cx="50%" cy="50%" r="30%" fx="50%" fy="50%"><stop offset="0%" style="stop-color: rgb(20, 25, 255); stop-opacity: 1;"></stop><stop offset="100%" style="stop-color: rgb(106, 127, 255); stop-opacity: 0;"></stop></radialGradient><radialGradient id="face1_gradient3" cx="50%" cy="50%" r="30%" fx="50%" fy="50%"><stop offset="0%" style="stop-color: rgb(76, 91, 255); stop-opacity: 1;"></stop><stop offset="100%" style="stop-color: rgb(106, 127, 255); stop-opacity: 0;"></stop></radialGradient></defs><path id="face1" d="M 80 148.64542209725852 C 66.8 155.26775166150938 53.2 145.76724723494027 40 152.38957679919113 C 53.2 159.011906363442 66.8 167.08775633933607 80 173.71008590358693 C 93.2 167.08775633933607 106.8 169.99854047651925 120 163.3762109122684 C 106.8 156.75388134801753 93.2 155.26775166150938 80 148.64542209725852 Z" fill="#3641ff" stroke="#000000" stroke-width="0"></path><circle cx="40" cy="152.38957679919113" r="80.75088933958952" clip-path="url(#face1_clipPath)" fill="url(#face1_gradient1)"></circle><circle cx="120" cy="163.3762109122684" r="80.75088933958952" clip-path="url(#face1_clipPath)" fill="url(#face1_gradient3)"></circle><circle cx="80" cy="148.64542209725852" r="25.06466380632841" clip-path="url(#face1_clipPath)" fill="url(#face1_gradient0)"></circle><circle cx="80" cy="173.71008590358693" r="25.06466380632841" clip-path="url(#face1_clipPath)" fill="url(#face1_gradient2)"></circle><path id="face1" d="M 80 148.64542209725852 C 66.8 155.26775166150938 53.2 145.76724723494027 40 152.38957679919113 C 53.2 159.011906363442 66.8 167.08775633933607 80 173.71008590358693 C 93.2 167.08775633933607 106.8 169.99854047651925 120 163.3762109122684 C 106.8 156.75388134801753 93.2 155.26775166150938 80 148.64542209725852 Z" fill="#00000000" stroke="#000000" stroke-width="0.5" style=""></path></g><g><defs><clipPath id="face2_clipPath"><path id="face2" d="M 200 138.9355582071418 C 186.8 145.55788777139267 173.2 123.35064062895478 160 129.97297019320564 C 173.2 136.5952997574565 186.8 167.6172734641007 200 174.23960302835155 C 213.2 167.6172734641007 226.8 166.31544567993646 240 159.6931161156856 C 226.8 153.07078655143474 213.2 145.55788777139267 200 138.9355582071418 Z" fill="#00000000" stroke="#000000" stroke-width="0"></path></clipPath><radialGradient id="face2_gradient0" cx="50%" cy="50%" r="30%" fx="50%" fy="50%"><stop offset="0%" style="stop-color: rgb(165, 198, 255); stop-opacity: 1;"></stop><stop offset="100%" style="stop-color: rgb(165, 198, 255); stop-opacity: 0;"></stop></radialGradient><radialGradient id="face2_gradient1" cx="50%" cy="50%" r="30%" fx="50%" fy="50%"><stop offset="0%" style="stop-color: rgb(0, 0, 255); stop-opacity: 1;"></stop><stop offset="100%" style="stop-color: rgb(165, 198, 255); stop-opacity: 0;"></stop></radialGradient><radialGradient id="face2_gradient2" cx="50%" cy="50%" r="30%" fx="50%" fy="50%"><stop offset="0%" style="stop-color: rgb(138, 165, 255); stop-opacity: 1;"></stop><stop offset="100%" style="stop-color: rgb(165, 198, 255); stop-opacity: 0;"></stop></radialGradient><radialGradient id="face2_gradient3" cx="50%" cy="50%" r="30%" fx="50%" fy="50%"><stop offset="0%" style="stop-color: rgb(169, 203, 255); stop-opacity: 1;"></stop><stop offset="100%" style="stop-color: rgb(165, 198, 255); stop-opacity: 0;"></stop></radialGradient></defs><path id="face2" d="M 200 138.9355582071418 C 186.8 145.55788777139267 173.2 123.35064062895478 160 129.97297019320564 C 173.2 136.5952997574565 186.8 167.6172734641007 200 174.23960302835155 C 213.2 167.6172734641007 226.8 166.31544567993646 240 159.6931161156856 C 226.8 153.07078655143474 213.2 145.55788777139267 200 138.9355582071418 Z" fill="#768eff" stroke="#000000" stroke-width="0"></path><circle cx="160" cy="129.97297019320564" r="85.34217640565245" clip-path="url(#face2_clipPath)" fill="url(#face2_gradient1)"></circle><circle cx="240" cy="159.6931161156856" r="85.34217640565245" clip-path="url(#face2_clipPath)" fill="url(#face2_gradient3)"></circle><circle cx="200" cy="138.9355582071418" r="35.30404482120974" clip-path="url(#face2_clipPath)" fill="url(#face2_gradient0)"></circle><circle cx="200" cy="174.23960302835155" r="35.30404482120974" clip-path="url(#face2_clipPath)" fill="url(#face2_gradient2)"></circle><path id="face2" d="M 200 138.9355582071418 C 186.8 145.55788777139267 173.2 123.35064062895478 160 129.97297019320564 C 173.2 136.5952997574565 186.8 167.6172734641007 200 174.23960302835155 C 213.2 167.6172734641007 226.8 166.31544567993646 240 159.6931161156856 C 226.8 153.07078655143474 213.2 145.55788777139267 200 138.9355582071418 Z" fill="#00000000" stroke="#000000" stroke-width="0.5" style=""></path></g><g><defs><clipPath id="face3_clipPath"><path id="face3" d="M 160 129.97297019320564 C 146.8 136.5952997574565 133.2 156.75388134801753 120 163.3762109122684 C 133.2 169.99854047651925 146.8 178.97753832307936 160 185.59986788733022 C 173.2 178.97753832307936 186.8 180.86193259260241 200 174.23960302835155 C 186.8 167.6172734641007 173.2 136.5952997574565 160 129.97297019320564 Z" fill="#00000000" stroke="#000000" stroke-width="0"></path></clipPath><radialGradient id="face3_gradient0" cx="50%" cy="50%" r="30%" fx="50%" fy="50%"><stop offset="0%" style="stop-color: rgb(0, 0, 255); stop-opacity: 1;"></stop><stop offset="100%" style="stop-color: rgb(0, 0, 255); stop-opacity: 0;"></stop></radialGradient><radialGradient id="face3_gradient1" cx="50%" cy="50%" r="30%" fx="50%" fy="50%"><stop offset="0%" style="stop-color: rgb(76, 91, 255); stop-opacity: 1;"></stop><stop offset="100%" style="stop-color: rgb(0, 0, 255); stop-opacity: 0;"></stop></radialGradient><radialGradient id="face3_gradient2" cx="50%" cy="50%" r="30%" fx="50%" fy="50%"><stop offset="0%" style="stop-color: rgb(88, 106, 255); stop-opacity: 1;"></stop><stop offset="100%" style="stop-color: rgb(0, 0, 255); stop-opacity: 0;"></stop></radialGradient><radialGradient id="face3_gradient3" cx="50%" cy="50%" r="30%" fx="50%" fy="50%"><stop offset="0%" style="stop-color: rgb(138, 165, 255); stop-opacity: 1;"></stop><stop offset="100%" style="stop-color: rgb(0, 0, 255); stop-opacity: 0;"></stop></radialGradient></defs><path id="face3" d="M 160 129.97297019320564 C 146.8 136.5952997574565 133.2 156.75388134801753 120 163.3762109122684 C 133.2 169.99854047651925 146.8 178.97753832307936 160 185.59986788733022 C 173.2 178.97753832307936 186.8 180.86193259260241 200 174.23960302835155 C 186.8 167.6172734641007 173.2 136.5952997574565 160 129.97297019320564 Z" fill="#4b5aff" stroke="#000000" stroke-width="0"></path><circle cx="120" cy="163.3762109122684" r="80.73421386418386" clip-path="url(#face3_clipPath)" fill="url(#face3_gradient1)"></circle><circle cx="200" cy="174.23960302835155" r="80.73421386418386" clip-path="url(#face3_clipPath)" fill="url(#face3_gradient3)"></circle><circle cx="160" cy="129.97297019320564" r="55.62689769412458" clip-path="url(#face3_clipPath)" fill="url(#face3_gradient0)"></circle><circle cx="160" cy="185.59986788733022" r="55.62689769412458" clip-path="url(#face3_clipPath)" fill="url(#face3_gradient2)"></circle><path id="face3" d="M 160 129.97297019320564 C 146.8 136.5952997574565 133.2 156.75388134801753 120 163.3762109122684 C 133.2 169.99854047651925 146.8 178.97753832307936 160 185.59986788733022 C 173.2 178.97753832307936 186.8 180.86193259260241 200 174.23960302835155 C 186.8 167.6172734641007 173.2 136.5952997574565 160 129.97297019320564 Z" fill="#00000000" stroke="#000000" stroke-width="0.5"></path></g><g><defs><clipPath id="face4_clipPath"><path id="face4" d="M 120 163.3762109122684 C 106.8 169.99854047651925 93.2 167.08775633933607 80 173.71008590358693 C 93.2 180.3324154678378 106.8 183.87781390077564 120 190.5001434650265 C 133.2 183.87781390077564 146.8 192.22219745158108 160 185.59986788733022 C 146.8 178.97753832307936 133.2 169.99854047651925 120 163.3762109122684 Z" fill="#00000000" stroke="#000000" stroke-width="0"></path></clipPath><radialGradient id="face4_gradient0" cx="50%" cy="50%" r="30%" fx="50%" fy="50%"><stop offset="0%" style="stop-color: rgb(76, 91, 255); stop-opacity: 1;"></stop><stop offset="100%" style="stop-color: rgb(76, 91, 255); stop-opacity: 0;"></stop></radialGradient><radialGradient id="face4_gradient1" cx="50%" cy="50%" r="30%" fx="50%" fy="50%"><stop offset="0%" style="stop-color: rgb(20, 25, 255); stop-opacity: 1;"></stop><stop offset="100%" style="stop-color: rgb(76, 91, 255); stop-opacity: 0;"></stop></radialGradient><radialGradient id="face4_gradient2" cx="50%" cy="50%" r="30%" fx="50%" fy="50%"><stop offset="0%" style="stop-color: rgb(2, 2, 255); stop-opacity: 1;"></stop><stop offset="100%" style="stop-color: rgb(76, 91, 255); stop-opacity: 0;"></stop></radialGradient><radialGradient id="face4_gradient3" cx="50%" cy="50%" r="30%" fx="50%" fy="50%"><stop offset="0%" style="stop-color: rgb(88, 106, 255); stop-opacity: 1;"></stop><stop offset="100%" style="stop-color: rgb(76, 91, 255); stop-opacity: 0;"></stop></radialGradient></defs><path id="face4" d="M 120 163.3762109122684 C 106.8 169.99854047651925 93.2 167.08775633933607 80 173.71008590358693 C 93.2 180.3324154678378 106.8 183.87781390077564 120 190.5001434650265 C 133.2 183.87781390077564 146.8 192.22219745158108 160 185.59986788733022 C 146.8 178.97753832307936 133.2 169.99854047651925 120 163.3762109122684 Z" fill="#2f38ff" stroke="#000000" stroke-width="0"></path><circle cx="80" cy="173.71008590358693" r="80.87871732180813" clip-path="url(#face4_clipPath)" fill="url(#face4_gradient1)"></circle><circle cx="160" cy="185.59986788733022" r="80.87871732180813" clip-path="url(#face4_clipPath)" fill="url(#face4_gradient3)"></circle><circle cx="120" cy="163.3762109122684" r="27.123932552758106" clip-path="url(#face4_clipPath)" fill="url(#face4_gradient0)"></circle><circle cx="120" cy="190.5001434650265" r="27.123932552758106" clip-path="url(#face4_clipPath)" fill="url(#face4_gradient2)"></circle><path id="face4" d="M 120 163.3762109122684 C 106.8 169.99854047651925 93.2 167.08775633933607 80 173.71008590358693 C 93.2 180.3324154678378 106.8 183.87781390077564 120 190.5001434650265 C 133.2 183.87781390077564 146.8 192.22219745158108 160 185.59986788733022 C 146.8 178.97753832307936 133.2 169.99854047651925 120 163.3762109122684 Z" fill="#00000000" stroke="#000000" stroke-width="0.5" style=""></path></g><g><defs><clipPath id="face5_clipPath"><path id="face5" d="M 240 159.6931161156856 C 226.8 166.31544567993646 213.2 167.6172734641007 200 174.23960302835155 C 213.2 180.86193259260241 226.8 177.21243699573967 240 183.83476655999053 C 253.2 177.21243699573967 266.8 179.89886615106593 280 173.27653658681507 C 266.8 166.6542070225642 253.2 166.31544567993646 240 159.6931161156856 Z" fill="#00000000" stroke="#000000" stroke-width="0"></path></clipPath><radialGradient id="face5_gradient0" cx="50%" cy="50%" r="30%" fx="50%" fy="50%"><stop offset="0%" style="stop-color: rgb(169, 203, 255); stop-opacity: 1;"></stop><stop offset="100%" style="stop-color: rgb(169, 203, 255); stop-opacity: 0;"></stop></radialGradient><radialGradient id="face5_gradient1" cx="50%" cy="50%" r="30%" fx="50%" fy="50%"><stop offset="0%" style="stop-color: rgb(138, 165, 255); stop-opacity: 1;"></stop><stop offset="100%" style="stop-color: rgb(169, 203, 255); stop-opacity: 0;"></stop></radialGradient><radialGradient id="face5_gradient2" cx="50%" cy="50%" r="30%" fx="50%" fy="50%"><stop offset="0%" style="stop-color: rgb(78, 94, 255); stop-opacity: 1;"></stop><stop offset="100%" style="stop-color: rgb(169, 203, 255); stop-opacity: 0;"></stop></radialGradient><radialGradient id="face5_gradient3" cx="50%" cy="50%" r="30%" fx="50%" fy="50%"><stop offset="0%" style="stop-color: rgb(132, 159, 255); stop-opacity: 1;"></stop><stop offset="100%" style="stop-color: rgb(169, 203, 255); stop-opacity: 0;"></stop></radialGradient></defs><path id="face5" d="M 240 159.6931161156856 C 226.8 166.31544567993646 213.2 167.6172734641007 200 174.23960302835155 C 213.2 180.86193259260241 226.8 177.21243699573967 240 183.83476655999053 C 253.2 177.21243699573967 266.8 179.89886615106593 280 173.27653658681507 C 266.8 166.6542070225642 253.2 166.31544567993646 240 159.6931161156856 Z" fill="#819bff" stroke="#000000" stroke-width="0"></path><circle cx="200" cy="174.23960302835155" r="80.00579664606067" clip-path="url(#face5_clipPath)" fill="url(#face5_gradient1)"></circle><circle cx="280" cy="173.27653658681507" r="80.00579664606067" clip-path="url(#face5_clipPath)" fill="url(#face5_gradient3)"></circle><circle cx="240" cy="159.6931161156856" r="24.14165044430493" clip-path="url(#face5_clipPath)" fill="url(#face5_gradient0)"></circle><circle cx="240" cy="183.83476655999053" r="24.14165044430493" clip-path="url(#face5_clipPath)" fill="url(#face5_gradient2)"></circle><path id="face5" d="M 240 159.6931161156856 C 226.8 166.31544567993646 213.2 167.6172734641007 200 174.23960302835155 C 213.2 180.86193259260241 226.8 177.21243699573967 240 183.83476655999053 C 253.2 177.21243699573967 266.8 179.89886615106593 280 173.27653658681507 C 266.8 166.6542070225642 253.2 166.31544567993646 240 159.6931161156856 Z" fill="#00000000" stroke="#000000" stroke-width="0.5" style=""></path></g><g><defs><clipPath id="face6_clipPath"><path id="face6" d="M 200 174.23960302835155 C 186.8 180.86193259260241 173.2 178.97753832307936 160 185.59986788733022 C 173.2 192.22219745158108 186.8 184.69636662499295 200 191.3186961892438 C 213.2 184.69636662499295 226.8 190.4570961242414 240 183.83476655999053 C 226.8 177.21243699573967 213.2 180.86193259260241 200 174.23960302835155 Z" fill="#00000000" stroke="#000000" stroke-width="0"></path></clipPath><radialGradient id="face6_gradient0" cx="50%" cy="50%" r="30%" fx="50%" fy="50%"><stop offset="0%" style="stop-color: rgb(138, 165, 255); stop-opacity: 1;"></stop><stop offset="100%" style="stop-color: rgb(138, 165, 255); stop-opacity: 0;"></stop></radialGradient><radialGradient id="face6_gradient1" cx="50%" cy="50%" r="30%" fx="50%" fy="50%"><stop offset="0%" style="stop-color: rgb(88, 106, 255); stop-opacity: 1;"></stop><stop offset="100%" style="stop-color: rgb(138, 165, 255); stop-opacity: 0;"></stop></radialGradient><radialGradient id="face6_gradient2" cx="50%" cy="50%" r="30%" fx="50%" fy="50%"><stop offset="0%" style="stop-color: rgb(6, 8, 255); stop-opacity: 1;"></stop><stop offset="100%" style="stop-color: rgb(138, 165, 255); stop-opacity: 0;"></stop></radialGradient><radialGradient id="face6_gradient3" cx="50%" cy="50%" r="30%" fx="50%" fy="50%"><stop offset="0%" style="stop-color: rgb(78, 94, 255); stop-opacity: 1;"></stop><stop offset="100%" style="stop-color: rgb(138, 165, 255); stop-opacity: 0;"></stop></radialGradient></defs><path id="face6" d="M 200 174.23960302835155 C 186.8 180.86193259260241 173.2 178.97753832307936 160 185.59986788733022 C 173.2 192.22219745158108 186.8 184.69636662499295 200 191.3186961892438 C 213.2 184.69636662499295 226.8 190.4570961242414 240 183.83476655999053 C 226.8 177.21243699573967 213.2 180.86193259260241 200 174.23960302835155 Z" fill="#4e5dff" stroke="#000000" stroke-width="0"></path><circle cx="160" cy="185.59986788733022" r="80.01947002258748" clip-path="url(#face6_clipPath)" fill="url(#face6_gradient1)"></circle><circle cx="240" cy="183.83476655999053" r="80.01947002258748" clip-path="url(#face6_clipPath)" fill="url(#face6_gradient3)"></circle><circle cx="200" cy="174.23960302835155" r="17.079093160892256" clip-path="url(#face6_clipPath)" fill="url(#face6_gradient0)"></circle><circle cx="200" cy="191.3186961892438" r="17.079093160892256" clip-path="url(#face6_clipPath)" fill="url(#face6_gradient2)"></circle><path id="face6" d="M 200 174.23960302835155 C 186.8 180.86193259260241 173.2 178.97753832307936 160 185.59986788733022 C 173.2 192.22219745158108 186.8 184.69636662499295 200 191.3186961892438 C 213.2 184.69636662499295 226.8 190.4570961242414 240 183.83476655999053 C 226.8 177.21243699573967 213.2 180.86193259260241 200 174.23960302835155 Z" fill="#00000000" stroke="#000000" stroke-width="0.5" style=""></path></g><g><defs><clipPath id="face7_clipPath"><path id="face7" d="M 160 185.59986788733022 C 146.8 192.22219745158108 133.2 183.87781390077564 120 190.5001434650265 C 133.2 197.12247302927736 146.8 206.21058637696999 160 212.83291594122085 C 173.2 206.21058637696999 186.8 197.94102575349467 200 191.3186961892438 C 186.8 184.69636662499295 173.2 192.22219745158108 160 185.59986788733022 Z" fill="#00000000" stroke="#000000" stroke-width="0"></path></clipPath><radialGradient id="face7_gradient0" cx="50%" cy="50%" r="30%" fx="50%" fy="50%"><stop offset="0%" style="stop-color: rgb(88, 106, 255); stop-opacity: 1;"></stop><stop offset="100%" style="stop-color: rgb(88, 106, 255); stop-opacity: 0;"></stop></radialGradient><radialGradient id="face7_gradient1" cx="50%" cy="50%" r="30%" fx="50%" fy="50%"><stop offset="0%" style="stop-color: rgb(2, 2, 255); stop-opacity: 1;"></stop><stop offset="100%" style="stop-color: rgb(88, 106, 255); stop-opacity: 0;"></stop></radialGradient><radialGradient id="face7_gradient2" cx="50%" cy="50%" r="30%" fx="50%" fy="50%"><stop offset="0%" style="stop-color: rgb(15, 18, 255); stop-opacity: 1;"></stop><stop offset="100%" style="stop-color: rgb(88, 106, 255); stop-opacity: 0;"></stop></radialGradient><radialGradient id="face7_gradient3" cx="50%" cy="50%" r="30%" fx="50%" fy="50%"><stop offset="0%" style="stop-color: rgb(6, 8, 255); stop-opacity: 1;"></stop><stop offset="100%" style="stop-color: rgb(88, 106, 255); stop-opacity: 0;"></stop></radialGradient></defs><path id="face7" d="M 160 185.59986788733022 C 146.8 192.22219745158108 133.2 183.87781390077564 120 190.5001434650265 C 133.2 197.12247302927736 146.8 206.21058637696999 160 212.83291594122085 C 173.2 206.21058637696999 186.8 197.94102575349467 200 191.3186961892438 C 186.8 184.69636662499295 173.2 192.22219745158108 160 185.59986788733022 Z" fill="#1c21ff" stroke="#000000" stroke-width="0"></path><circle cx="120" cy="190.5001434650265" r="80.0041875689162" clip-path="url(#face7_clipPath)" fill="url(#face7_gradient1)"></circle><circle cx="200" cy="191.3186961892438" r="80.0041875689162" clip-path="url(#face7_clipPath)" fill="url(#face7_gradient3)"></circle><circle cx="160" cy="185.59986788733022" r="27.233048053890627" clip-path="url(#face7_clipPath)" fill="url(#face7_gradient0)"></circle><circle cx="160" cy="212.83291594122085" r="27.233048053890627" clip-path="url(#face7_clipPath)" fill="url(#face7_gradient2)"></circle><path id="face7" d="M 160 185.59986788733022 C 146.8 192.22219745158108 133.2 183.87781390077564 120 190.5001434650265 C 133.2 197.12247302927736 146.8 206.21058637696999 160 212.83291594122085 C 173.2 206.21058637696999 186.8 197.94102575349467 200 191.3186961892438 C 186.8 184.69636662499295 173.2 192.22219745158108 160 185.59986788733022 Z" fill="#00000000" stroke="#000000" stroke-width="0.5" style=""></path></g><g><defs><clipPath id="face8_clipPath"><path id="face8" d="M 280 173.27653658681507 C 266.8 179.89886615106593 253.2 177.21243699573967 240 183.83476655999053 C 253.2 190.4570961242414 266.8 192.22133551613763 280 198.8436650803885 C 293.2 192.22133551613763 306.8 183.86101987713525 320 177.2386903128844 C 306.8 170.61636074863353 293.2 179.89886615106593 280 173.27653658681507 Z" fill="#00000000" stroke="#000000" stroke-width="0"></path></clipPath><radialGradient id="face8_gradient0" cx="50%" cy="50%" r="30%" fx="50%" fy="50%"><stop offset="0%" style="stop-color: rgb(132, 159, 255); stop-opacity: 1;"></stop><stop offset="100%" style="stop-color: rgb(132, 159, 255); stop-opacity: 0;"></stop></radialGradient><radialGradient id="face8_gradient1" cx="50%" cy="50%" r="30%" fx="50%" fy="50%"><stop offset="0%" style="stop-color: rgb(78, 94, 255); stop-opacity: 1;"></stop><stop offset="100%" style="stop-color: rgb(132, 159, 255); stop-opacity: 0;"></stop></radialGradient><radialGradient id="face8_gradient2" cx="50%" cy="50%" r="30%" fx="50%" fy="50%"><stop offset="0%" style="stop-color: rgb(49, 59, 255); stop-opacity: 1;"></stop><stop offset="100%" style="stop-color: rgb(132, 159, 255); stop-opacity: 0;"></stop></radialGradient><radialGradient id="face8_gradient3" cx="50%" cy="50%" r="30%" fx="50%" fy="50%"><stop offset="0%" style="stop-color: rgb(41, 49, 255); stop-opacity: 1;"></stop><stop offset="100%" style="stop-color: rgb(132, 159, 255); stop-opacity: 0;"></stop></radialGradient></defs><path id="face8" d="M 280 173.27653658681507 C 266.8 179.89886615106593 253.2 177.21243699573967 240 183.83476655999053 C 253.2 190.4570961242414 266.8 192.22133551613763 280 198.8436650803885 C 293.2 192.22133551613763 306.8 183.86101987713525 320 177.2386903128844 C 306.8 170.61636074863353 293.2 179.89886615106593 280 173.27653658681507 Z" fill="#4b5aff" stroke="#000000" stroke-width="0"></path><circle cx="240" cy="183.83476655999053" r="80.27146580110293" clip-path="url(#face8_clipPath)" fill="url(#face8_gradient1)"></circle><circle cx="320" cy="177.2386903128844" r="80.27146580110293" clip-path="url(#face8_clipPath)" fill="url(#face8_gradient3)"></circle><circle cx="280" cy="173.27653658681507" r="25.56712849357342" clip-path="url(#face8_clipPath)" fill="url(#face8_gradient0)"></circle><circle cx="280" cy="198.8436650803885" r="25.56712849357342" clip-path="url(#face8_clipPath)" fill="url(#face8_gradient2)"></circle><path id="face8" d="M 280 173.27653658681507 C 266.8 179.89886615106593 253.2 177.21243699573967 240 183.83476655999053 C 253.2 190.4570961242414 266.8 192.22133551613763 280 198.8436650803885 C 293.2 192.22133551613763 306.8 183.86101987713525 320 177.2386903128844 C 306.8 170.61636074863353 293.2 179.89886615106593 280 173.27653658681507 Z" fill="#00000000" stroke="#000000" stroke-width="0.5" style=""></path></g><g><defs><clipPath id="face9_clipPath"><path id="face9" d="M 240 183.83476655999053 C 226.8 190.4570961242414 213.2 184.69636662499295 200 191.3186961892438 C 213.2 197.94102575349467 226.8 215.49385263265745 240 222.1161821969083 C 253.2 215.49385263265745 266.8 205.46599464463935 280 198.8436650803885 C 266.8 192.22133551613763 253.2 190.4570961242414 240 183.83476655999053 Z" fill="#00000000" stroke="#000000" stroke-width="0"></path></clipPath><radialGradient id="face9_gradient0" cx="50%" cy="50%" r="30%" fx="50%" fy="50%"><stop offset="0%" style="stop-color: rgb(78, 94, 255); stop-opacity: 1;"></stop><stop offset="100%" style="stop-color: rgb(78, 94, 255); stop-opacity: 0;"></stop></radialGradient><radialGradient id="face9_gradient1" cx="50%" cy="50%" r="30%" fx="50%" fy="50%"><stop offset="0%" style="stop-color: rgb(6, 8, 255); stop-opacity: 1;"></stop><stop offset="100%" style="stop-color: rgb(78, 94, 255); stop-opacity: 0;"></stop></radialGradient><radialGradient id="face9_gradient2" cx="50%" cy="50%" r="30%" fx="50%" fy="50%"><stop offset="0%" style="stop-color: rgb(68, 81, 255); stop-opacity: 1;"></stop><stop offset="100%" style="stop-color: rgb(78, 94, 255); stop-opacity: 0;"></stop></radialGradient><radialGradient id="face9_gradient3" cx="50%" cy="50%" r="30%" fx="50%" fy="50%"><stop offset="0%" style="stop-color: rgb(49, 59, 255); stop-opacity: 1;"></stop><stop offset="100%" style="stop-color: rgb(78, 94, 255); stop-opacity: 0;"></stop></radialGradient></defs><path id="face9" d="M 240 183.83476655999053 C 226.8 190.4570961242414 213.2 184.69636662499295 200 191.3186961892438 C 213.2 197.94102575349467 226.8 215.49385263265745 240 222.1161821969083 C 253.2 215.49385263265745 266.8 205.46599464463935 280 198.8436650803885 C 266.8 192.22133551613763 253.2 190.4570961242414 240 183.83476655999053 Z" fill="#323cff" stroke="#000000" stroke-width="0"></path><circle cx="200" cy="191.3186961892438" r="80.35312785954692" clip-path="url(#face9_clipPath)" fill="url(#face9_gradient1)"></circle><circle cx="280" cy="198.8436650803885" r="80.35312785954692" clip-path="url(#face9_clipPath)" fill="url(#face9_gradient3)"></circle><circle cx="240" cy="183.83476655999053" r="38.281415636917785" clip-path="url(#face9_clipPath)" fill="url(#face9_gradient0)"></circle><circle cx="240" cy="222.1161821969083" r="38.281415636917785" clip-path="url(#face9_clipPath)" fill="url(#face9_gradient2)"></circle><path id="face9" d="M 240 183.83476655999053 C 226.8 190.4570961242414 213.2 184.69636662499295 200 191.3186961892438 C 213.2 197.94102575349467 226.8 215.49385263265745 240 222.1161821969083 C 253.2 215.49385263265745 266.8 205.46599464463935 280 198.8436650803885 C 266.8 192.22133551613763 253.2 190.4570961242414 240 183.83476655999053 Z" fill="#00000000" stroke="#000000" stroke-width="0.5" style=""></path></g><g><defs><clipPath id="face10_clipPath"><path id="face10" d="M 320 177.2386903128844 C 306.8 183.86101987713525 293.2 192.22133551613763 280 198.8436650803885 C 293.2 205.46599464463935 306.8 224.29880297153545 320 230.9211325357863 C 333.2 224.29880297153545 346.8 223.12405817941823 360 216.50172861516737 C 346.8 209.8793990509165 333.2 183.86101987713525 320 177.2386903128844 Z" fill="#00000000" stroke="#000000" stroke-width="0"></path></clipPath><radialGradient id="face10_gradient0" cx="50%" cy="50%" r="30%" fx="50%" fy="50%"><stop offset="0%" style="stop-color: rgb(41, 49, 255); stop-opacity: 1;"></stop><stop offset="100%" style="stop-color: rgb(41, 49, 255); stop-opacity: 0;"></stop></radialGradient><radialGradient id="face10_gradient1" cx="50%" cy="50%" r="30%" fx="50%" fy="50%"><stop offset="0%" style="stop-color: rgb(49, 59, 255); stop-opacity: 1;"></stop><stop offset="100%" style="stop-color: rgb(41, 49, 255); stop-opacity: 0;"></stop></radialGradient><radialGradient id="face10_gradient2" cx="50%" cy="50%" r="30%" fx="50%" fy="50%"><stop offset="0%" style="stop-color: rgb(118, 141, 255); stop-opacity: 1;"></stop><stop offset="100%" style="stop-color: rgb(41, 49, 255); stop-opacity: 0;"></stop></radialGradient><radialGradient id="face10_gradient3" cx="50%" cy="50%" r="30%" fx="50%" fy="50%"><stop offset="0%" style="stop-color: rgb(150, 180, 255); stop-opacity: 1;"></stop><stop offset="100%" style="stop-color: rgb(41, 49, 255); stop-opacity: 0;"></stop></radialGradient></defs><path id="face10" d="M 320 177.2386903128844 C 306.8 183.86101987713525 293.2 192.22133551613763 280 198.8436650803885 C 293.2 205.46599464463935 306.8 224.29880297153545 320 230.9211325357863 C 333.2 224.29880297153545 346.8 223.12405817941823 360 216.50172861516737 C 346.8 209.8793990509165 333.2 183.86101987713525 320 177.2386903128844 Z" fill="#596bff" stroke="#000000" stroke-width="0"></path><circle cx="280" cy="198.8436650803885" r="81.92561997201051" clip-path="url(#face10_clipPath)" fill="url(#face10_gradient1)"></circle><circle cx="360" cy="216.50172861516737" r="81.92561997201051" clip-path="url(#face10_clipPath)" fill="url(#face10_gradient3)"></circle><circle cx="320" cy="177.2386903128844" r="53.682442222901926" clip-path="url(#face10_clipPath)" fill="url(#face10_gradient0)"></circle><circle cx="320" cy="230.9211325357863" r="53.682442222901926" clip-path="url(#face10_clipPath)" fill="url(#face10_gradient2)"></circle><path id="face10" d="M 320 177.2386903128844 C 306.8 183.86101987713525 293.2 192.22133551613763 280 198.8436650803885 C 293.2 205.46599464463935 306.8 224.29880297153545 320 230.9211325357863 C 333.2 224.29880297153545 346.8 223.12405817941823 360 216.50172861516737 C 346.8 209.8793990509165 333.2 183.86101987713525 320 177.2386903128844 Z" fill="#00000000" stroke="#000000" stroke-width="0.5"></path></g><g><defs><clipPath id="face11_clipPath"><path id="face11" d="M 280 198.8436650803885 C 266.8 205.46599464463935 253.2 215.49385263265745 240 222.1161821969083 C 253.2 228.73851176115917 266.8 244.34413934448176 280 250.96646890873262 C 293.2 244.34413934448176 306.8 237.54346210003717 320 230.9211325357863 C 306.8 224.29880297153545 293.2 205.46599464463935 280 198.8436650803885 Z" fill="#00000000" stroke="#000000" stroke-width="0"></path></clipPath><radialGradient id="face11_gradient0" cx="50%" cy="50%" r="30%" fx="50%" fy="50%"><stop offset="0%" style="stop-color: rgb(49, 59, 255); stop-opacity: 1;"></stop><stop offset="100%" style="stop-color: rgb(49, 59, 255); stop-opacity: 0;"></stop></radialGradient><radialGradient id="face11_gradient1" cx="50%" cy="50%" r="30%" fx="50%" fy="50%"><stop offset="0%" style="stop-color: rgb(68, 81, 255); stop-opacity: 1;"></stop><stop offset="100%" style="stop-color: rgb(49, 59, 255); stop-opacity: 0;"></stop></radialGradient><radialGradient id="face11_gradient2" cx="50%" cy="50%" r="30%" fx="50%" fy="50%"><stop offset="0%" style="stop-color: rgb(117, 141, 255); stop-opacity: 1;"></stop><stop offset="100%" style="stop-color: rgb(49, 59, 255); stop-opacity: 0;"></stop></radialGradient><radialGradient id="face11_gradient3" cx="50%" cy="50%" r="30%" fx="50%" fy="50%"><stop offset="0%" style="stop-color: rgb(118, 141, 255); stop-opacity: 1;"></stop><stop offset="100%" style="stop-color: rgb(49, 59, 255); stop-opacity: 0;"></stop></radialGradient></defs><path id="face11" d="M 280 198.8436650803885 C 266.8 205.46599464463935 253.2 215.49385263265745 240 222.1161821969083 C 253.2 228.73851176115917 266.8 244.34413934448176 280 250.96646890873262 C 293.2 244.34413934448176 306.8 237.54346210003717 320 230.9211325357863 C 306.8 224.29880297153545 293.2 205.46599464463935 280 198.8436650803885 Z" fill="#586aff" stroke="#000000" stroke-width="0"></path><circle cx="240" cy="222.1161821969083" r="80.48308611422718" clip-path="url(#face11_clipPath)" fill="url(#face11_gradient1)"></circle><circle cx="320" cy="230.9211325357863" r="80.48308611422718" clip-path="url(#face11_clipPath)" fill="url(#face11_gradient3)"></circle><circle cx="280" cy="198.8436650803885" r="52.12280382834413" clip-path="url(#face11_clipPath)" fill="url(#face11_gradient0)"></circle><circle cx="280" cy="250.96646890873262" r="52.12280382834413" clip-path="url(#face11_clipPath)" fill="url(#face11_gradient2)"></circle><path id="face11" d="M 280 198.8436650803885 C 266.8 205.46599464463935 253.2 215.49385263265745 240 222.1161821969083 C 253.2 228.73851176115917 266.8 244.34413934448176 280 250.96646890873262 C 293.2 244.34413934448176 306.8 237.54346210003717 320 230.9211325357863 C 306.8 224.29880297153545 293.2 205.46599464463935 280 198.8436650803885 Z" fill="#00000000" stroke="#000000" stroke-width="0.5"></path></g><g><defs><clipPath id="face12_clipPath"><path id="face12" d="M 360 216.50172861516737 C 346.8 223.12405817941823 333.2 224.29880297153545 320 230.9211325357863 C 333.2 237.54346210003717 346.8 231.53155306873336 360 238.15388263298422 C 373.2 231.53155306873336 386.8 245.7398138570909 400 239.11748429284003 C 386.8 232.49515472858917 373.2 223.12405817941823 360 216.50172861516737 Z" fill="#00000000" stroke="#000000" stroke-width="0"></path></clipPath><radialGradient id="face12_gradient0" cx="50%" cy="50%" r="30%" fx="50%" fy="50%"><stop offset="0%" style="stop-color: rgb(150, 180, 255); stop-opacity: 1;"></stop><stop offset="100%" style="stop-color: rgb(150, 180, 255); stop-opacity: 0;"></stop></radialGradient><radialGradient id="face12_gradient1" cx="50%" cy="50%" r="30%" fx="50%" fy="50%"><stop offset="0%" style="stop-color: rgb(118, 141, 255); stop-opacity: 1;"></stop><stop offset="100%" style="stop-color: rgb(150, 180, 255); stop-opacity: 0;"></stop></radialGradient><radialGradient id="face12_gradient2" cx="50%" cy="50%" r="30%" fx="50%" fy="50%"><stop offset="0%" style="stop-color: rgb(45, 54, 255); stop-opacity: 1;"></stop><stop offset="100%" style="stop-color: rgb(150, 180, 255); stop-opacity: 0;"></stop></radialGradient><radialGradient id="face12_gradient3" cx="50%" cy="50%" r="30%" fx="50%" fy="50%"><stop offset="0%" style="stop-color: rgb(164, 197, 255); stop-opacity: 1;"></stop><stop offset="100%" style="stop-color: rgb(150, 180, 255); stop-opacity: 0;"></stop></radialGradient></defs><path id="face12" d="M 360 216.50172861516737 C 346.8 223.12405817941823 333.2 224.29880297153545 320 230.9211325357863 C 333.2 237.54346210003717 346.8 231.53155306873336 360 238.15388263298422 C 373.2 231.53155306873336 386.8 245.7398138570909 400 239.11748429284003 C 386.8 232.49515472858917 373.2 223.12405817941823 360 216.50172861516737 Z" fill="#778fff" stroke="#000000" stroke-width="0"></path><circle cx="320" cy="230.9211325357863" r="80.41878003380403" clip-path="url(#face12_clipPath)" fill="url(#face12_gradient1)"></circle><circle cx="400" cy="239.11748429284003" r="80.41878003380403" clip-path="url(#face12_clipPath)" fill="url(#face12_gradient3)"></circle><circle cx="360" cy="216.50172861516737" r="21.652154017816855" clip-path="url(#face12_clipPath)" fill="url(#face12_gradient0)"></circle><circle cx="360" cy="238.15388263298422" r="21.652154017816855" clip-path="url(#face12_clipPath)" fill="url(#face12_gradient2)"></circle><path id="face12" d="M 360 216.50172861516737 C 346.8 223.12405817941823 333.2 224.29880297153545 320 230.9211325357863 C 333.2 237.54346210003717 346.8 231.53155306873336 360 238.15388263298422 C 373.2 231.53155306873336 386.8 245.7398138570909 400 239.11748429284003 C 386.8 232.49515472858917 373.2 223.12405817941823 360 216.50172861516737 Z" fill="#00000000" stroke="#000000" stroke-width="0.5" style=""></path></g><g><defs><clipPath id="face13_clipPath"><path id="face13" d="M 320 230.9211325357863 C 306.8 237.54346210003717 293.2 244.34413934448176 280 250.96646890873262 C 293.2 257.58879847298346 306.8 245.9990464231296 320 252.62137598738047 C 333.2 245.9990464231296 346.8 244.77621219723508 360 238.15388263298422 C 346.8 231.53155306873336 333.2 237.54346210003717 320 230.9211325357863 Z" fill="#00000000" stroke="#000000" stroke-width="0"></path></clipPath><radialGradient id="face13_gradient0" cx="50%" cy="50%" r="30%" fx="50%" fy="50%"><stop offset="0%" style="stop-color: rgb(118, 141, 255); stop-opacity: 1;"></stop><stop offset="100%" style="stop-color: rgb(118, 141, 255); stop-opacity: 0;"></stop></radialGradient><radialGradient id="face13_gradient1" cx="50%" cy="50%" r="30%" fx="50%" fy="50%"><stop offset="0%" style="stop-color: rgb(117, 141, 255); stop-opacity: 1;"></stop><stop offset="100%" style="stop-color: rgb(118, 141, 255); stop-opacity: 0;"></stop></radialGradient><radialGradient id="face13_gradient2" cx="50%" cy="50%" r="30%" fx="50%" fy="50%"><stop offset="0%" style="stop-color: rgb(13, 15, 255); stop-opacity: 1;"></stop><stop offset="100%" style="stop-color: rgb(118, 141, 255); stop-opacity: 0;"></stop></radialGradient><radialGradient id="face13_gradient3" cx="50%" cy="50%" r="30%" fx="50%" fy="50%"><stop offset="0%" style="stop-color: rgb(45, 54, 255); stop-opacity: 1;"></stop><stop offset="100%" style="stop-color: rgb(118, 141, 255); stop-opacity: 0;"></stop></radialGradient></defs><path id="face13" d="M 320 230.9211325357863 C 306.8 237.54346210003717 293.2 244.34413934448176 280 250.96646890873262 C 293.2 257.58879847298346 306.8 245.9990464231296 320 252.62137598738047 C 333.2 245.9990464231296 346.8 244.77621219723508 360 238.15388263298422 C 346.8 231.53155306873336 333.2 237.54346210003717 320 230.9211325357863 Z" fill="#4958ff" stroke="#000000" stroke-width="0"></path><circle cx="280" cy="250.96646890873262" r="81.01951843274247" clip-path="url(#face13_clipPath)" fill="url(#face13_gradient1)"></circle><circle cx="360" cy="238.15388263298422" r="81.01951843274247" clip-path="url(#face13_clipPath)" fill="url(#face13_gradient3)"></circle><circle cx="320" cy="230.9211325357863" r="21.70024345159416" clip-path="url(#face13_clipPath)" fill="url(#face13_gradient0)"></circle><circle cx="320" cy="252.62137598738047" r="21.70024345159416" clip-path="url(#face13_clipPath)" fill="url(#face13_gradient2)"></circle><path id="face13" d="M 320 230.9211325357863 C 306.8 237.54346210003717 293.2 244.34413934448176 280 250.96646890873262 C 293.2 257.58879847298346 306.8 245.9990464231296 320 252.62137598738047 C 333.2 245.9990464231296 346.8 244.77621219723508 360 238.15388263298422 C 346.8 231.53155306873336 333.2 237.54346210003717 320 230.9211325357863 Z" fill="#00000000" stroke="#000000" stroke-width="0.5" style=""></path></g><g><circle cx="0" cy="135.5004960646003" r="4" fill="#00000000"></circle><circle cx="0" cy="135.5004960646003" r="2" fill="black"></circle></g><g><circle cx="40" cy="110.71098356636645" r="4" fill="#00000000"></circle><circle cx="40" cy="110.71098356636645" r="2" fill="black"></circle></g><g><circle cx="80" cy="100.34768954207149" r="4" fill="#00000000"></circle><circle cx="80" cy="100.34768954207149" r="2" fill="black"></circle></g><g><circle cx="120" cy="72.4980956589964" r="4" fill="#00000000"></circle><circle cx="120" cy="72.4980956589964" r="2" fill="black"></circle></g><g><circle cx="40" cy="152.38957679919113" r="4" fill="#00000000"></circle><circle cx="40" cy="152.38957679919113" r="2" fill="black"></circle></g><g><circle cx="80" cy="148.64542209725852" r="4" fill="#00000000"></circle><circle cx="80" cy="148.64542209725852" r="2" fill="black"></circle></g><g><circle cx="160" cy="103.40746963530452" r="4" fill="#00000000"></circle><circle cx="160" cy="103.40746963530452" r="2" fill="black"></circle></g><g><circle cx="80" cy="173.71008590358693" r="4" fill="#00000000"></circle><circle cx="80" cy="173.71008590358693" r="2" fill="black"></circle></g><g><circle cx="120" cy="163.3762109122684" r="4" fill="#00000000"></circle><circle cx="120" cy="163.3762109122684" r="2" fill="black"></circle></g><g><circle cx="160" cy="129.97297019320564" r="4" fill="#00000000"></circle><circle cx="160" cy="129.97297019320564" r="2" fill="black"></circle></g><g><circle cx="200" cy="138.9355582071418" r="4" fill="#00000000"></circle><circle cx="200" cy="138.9355582071418" r="2" fill="black"></circle></g><g><circle cx="120" cy="190.5001434650265" r="4" fill="#00000000"></circle><circle cx="120" cy="190.5001434650265" r="2" fill="black"></circle></g><g><circle cx="160" cy="185.59986788733022" r="4" fill="#00000000"></circle><circle cx="160" cy="185.59986788733022" r="2" fill="black"></circle></g><g><circle cx="200" cy="174.23960302835155" r="4" fill="#00000000"></circle><circle cx="200" cy="174.23960302835155" r="2" fill="black"></circle></g><g><circle cx="240" cy="159.6931161156856" r="4" fill="#00000000"></circle><circle cx="240" cy="159.6931161156856" r="2" fill="black"></circle></g><g><circle cx="160" cy="212.83291594122085" r="4" fill="#00000000"></circle><circle cx="160" cy="212.83291594122085" r="2" fill="black"></circle></g><g><circle cx="200" cy="191.3186961892438" r="4" fill="#00000000"></circle><circle cx="200" cy="191.3186961892438" r="2" fill="black"></circle></g><g><circle cx="240" cy="183.83476655999053" r="4" fill="#00000000"></circle><circle cx="240" cy="183.83476655999053" r="2" fill="black"></circle></g><g><circle cx="280" cy="173.27653658681507" r="4" fill="#00000000"></circle><circle cx="280" cy="173.27653658681507" r="2" fill="black"></circle></g><g><circle cx="240" cy="222.1161821969083" r="4" fill="#00000000"></circle><circle cx="240" cy="222.1161821969083" r="2" fill="black"></circle></g><g><circle cx="280" cy="198.8436650803885" r="4" fill="#00000000"></circle><circle cx="280" cy="198.8436650803885" r="2" fill="black"></circle></g><g><circle cx="320" cy="177.2386903128844" r="4" fill="#00000000"></circle><circle cx="320" cy="177.2386903128844" r="2" fill="black"></circle></g><g><circle cx="240" cy="261.80124275278297" r="4" fill="#00000000"></circle><circle cx="240" cy="261.80124275278297" r="2" fill="black"></circle></g><g><circle cx="280" cy="250.96646890873262" r="4" fill="#00000000"></circle><circle cx="280" cy="250.96646890873262" r="2" fill="black"></circle></g><g><circle cx="320" cy="230.9211325357863" r="4" fill="#00000000"></circle><circle cx="320" cy="230.9211325357863" r="2" fill="black"></circle></g><g><circle cx="360" cy="216.50172861516737" r="4" fill="#00000000"></circle><circle cx="360" cy="216.50172861516737" r="2" fill="black"></circle></g><g><circle cx="320" cy="252.62137598738047" r="4" fill="#00000000"></circle><circle cx="320" cy="252.62137598738047" r="2" fill="black"></circle></g><g><circle cx="360" cy="238.15388263298422" r="4" fill="#00000000"></circle><circle cx="360" cy="238.15388263298422" r="2" fill="black"></circle></g><g><circle cx="400" cy="239.11748429284003" r="4" fill="#00000000"></circle><circle cx="400" cy="239.11748429284003" r="2" fill="black"></circle></g></svg>